<?xml version="1.0" encoding="UTF-8"?>
<svg xmlns="http://www.w3.org/2000/svg" xmlns:xlink="http://www.w3.org/1999/xlink" width="24px" height="18px" viewBox="0 0 23 18" version="1.1">
<g id="surface1">
<path style=" stroke:none;fill-rule:evenodd;fill:rgb(0%,0%,0%);fill-opacity:1;" d="M 2.289062 5.292969 L 4.046875 5.292969 L 8.351562 0.355469 C 8.734375 -0.0859375 9.398438 -0.121094 9.824219 0.269531 C 10.253906 0.660156 10.292969 1.339844 9.910156 1.78125 L 6.847656 5.292969 L 16.230469 5.292969 L 13.167969 1.78125 C 12.785156 1.339844 12.824219 0.660156 13.253906 0.269531 C 13.679688 -0.121094 14.34375 -0.0859375 14.726562 0.355469 L 19.03125 5.292969 L 22.316406 5.292969 C 22.667969 5.292969 22.957031 5.589844 22.957031 5.953125 L 22.957031 7.808594 C 22.957031 8.171875 22.667969 8.46875 22.316406 8.46875 L 20.949219 8.46875 L 20.246094 17.542969 C 20.226562 17.792969 20.042969 18 19.800781 18 L 3.203125 18 C 2.957031 18 2.777344 17.792969 2.757812 17.542969 L 2.054688 8.46875 L 0.6875 8.46875 C 0.332031 8.46875 0.0429688 8.171875 0.0429688 7.808594 L 0.0429688 5.953125 C 0.0429688 5.589844 0.332031 5.292969 0.6875 5.292969 Z M 14.527344 8.824219 L 16.558594 8.824219 L 16.558594 14.84375 L 14.527344 14.84375 Z M 10.570312 8.824219 L 12.601562 8.824219 L 12.601562 14.84375 L 10.570312 14.84375 Z M 6.613281 8.824219 L 8.648438 8.824219 L 8.648438 14.84375 L 6.613281 14.84375 Z M 6.613281 8.824219 "/>
</g>
</svg>
