<?xml version="1.0" encoding="UTF-8"?>
<svg xmlns="http://www.w3.org/2000/svg" xmlns:xlink="http://www.w3.org/1999/xlink" width="12px" height="16px" viewBox="0 0 12 16" version="1.1">
<g id="surface1">
<path style=" stroke:none;fill-rule:evenodd;fill:rgb(93.72549%,25.490196%,21.176471%);fill-opacity:1;" d="M 6.386719 15.902344 C 6.265625 15.988281 6.105469 15.992188 5.980469 15.914062 C 4.644531 15.074219 3.460938 14.015625 2.472656 12.789062 C 1.191406 11.1875 0.390625 9.414062 0.109375 7.703125 C -0.171875 5.96875 0.0898438 4.300781 0.953125 2.945312 C 1.308594 2.394531 1.75 1.90625 2.261719 1.5 C 3.480469 0.53125 4.875 0.0195312 6.265625 0.03125 C 7.601562 0.0390625 8.921875 0.539062 10.0625 1.574219 C 10.457031 1.933594 10.800781 2.347656 11.078125 2.804688 C 12.007812 4.332031 12.207031 6.28125 11.796875 8.253906 C 11.105469 11.425781 9.152344 14.183594 6.386719 15.898438 Z M 5.996094 3.113281 C 7.648438 3.109375 8.992188 4.441406 8.996094 6.089844 C 9 7.738281 7.660156 9.078125 6.007812 9.078125 C 4.355469 9.082031 3.011719 7.746094 3.011719 6.09375 C 3.011719 4.449219 4.351562 3.113281 6 3.113281 Z M 5.996094 3.113281 "/>
</g>
</svg>
